# xmcd
#
# Track frame offsets: 
#        150
#        21237
#        33025
#        51925
#        67962
#        91150
#        135912
#        153387
#        184875
#        205350
#        222412
#        254362
#        278237
#
# Disc length: 3842 seconds
#
# Revision: 1
# Processed by: cddbd v1.5.1PL2 Copyright (c) Steve Scherf et al.
# Submitted via: ExactAudioCopy v0.95b4
#
DISCID=b50f000d
DTITLE=Williams Wetsox - mei Herz gherd'n Blues
DYEAR=1994
DGENRE=Bayersich-Blues
TTITLE0=Motorradfahrersong
TTITLE1=mei Herz gherdn Blues
TTITLE2=total verliebt
TTITLE3=wenn Du lebst
TTITLE4=des is a Boogie
TTITLE5=Mitternachtsblues
TTITLE6=fahr ma furt
TTITLE7=mit wem wuist Du geh'
TTITLE8=liagd's uns net o
TTITLE9=arme Woit
TTITLE10=Volksfest
TTITLE11=traurige Zeit'n
TTITLE12=mia san boarische Buam
EXTD=
EXTT0=
EXTT1=
EXTT2=
EXTT3=
EXTT4=
EXTT5=
EXTT6=
EXTT7=
EXTT8=
EXTT9=
EXTT10=
EXTT11=
EXTT12=
PLAYORDER=
